<svg xmlns="http://www.w3.org/2000/svg" height="600" width="600" class="a"><style>.a{position:relative;top:-0.5px;}.b{-webkit-tap-highlight-color:rgba(0, 0, 0, 0);fill:#ecf0f1;font-family:arial, helvetica, sans-serif;font-size:10px;font-weight:bold;line-height:normal;text-anchor:middle;}.c{-webkit-tap-highlight-color:rgba(0, 0, 0, 0);}</style><a tabindex="0" class="bd-popover" data-trigger="hover" data-toggle="popover" data-placement="top" title="Suceava" data-content="contact info" class="undefined"><path class="land" d="M339.3 201.1C341 200.3 342.8 198.9 343 197.9 343.3 196.9 341 193.9 341.3 192.9 341.5 191.9 345.8 192.9 347 194.9 348.3 196.9 351 195.1 354 195.1 357 195.1 357.3 193.9 360.3 193.6 363.3 193.4 371.5 192.9 376 191.4 380.5 189.9 381 195.4 382.8 195.6 384.5 195.9 385.8 193.6 384.5 192.9 383.3 192.1 381.3 186.9 381.3 185.9 381.3 184.9 383.8 185.4 385 185.4 386.3 185.4 388.5 189.1 390.5 189.1 392.5 189.1 392.8 183.9 392.8 182.9 392.8 181.9 390.3 179.4 388.5 179.4 386.8 179.4 387.5 176.1 386.8 176.1 386 176.1 382.8 167.4 382.8 165.6 382.8 163.9 378.5 160.4 377.5 158.1 376.5 155.9 371.3 155.1 371.3 153.6 371.3 152.1 370 150.1 367.3 149.4 364.5 148.6 361.3 141.9 361.3 141.9 358.7 143.3 349.5 140.3 347.8 141.6 346.2 142.9 341.3 144.1 339.5 145.1 337.7 146.1 325 145.4 321.2 145.9 317.3 146.4 309.8 150.4 309.8 150.4 307 151.4 307 155.4 305.5 157.8 304 160.1 296.8 162.6 292.2 162.3 299.8 167.1 295.8 169.4 294.3 171.3 292.8 173.1 296.8 174.9 298.7 176.6 300.5 178.3 299.7 180.4 299.7 182.1 299.7 183.8 296.2 182.8 297 185.4 297.8 188.1 299.3 191.9 299.3 197.3 299.3 202.6 303.2 208.4 306.3 210.4 309.5 212.4 312.8 211.6 314.3 210.1 315.8 208.6 315.7 207.8 318.5 207.4 321.3 207.1 325.5 207.6 327.3 209.1 329.2 210.6 331.8 209.3 336.2 209.9 336.2 209.9 335.8 202.9 339.3 201.1Z" class="undefined"><title class="undefined">  V1: Derek</title></path></a><a tabindex="0" class="bd-popover" data-trigger="hover" data-toggle="popover" data-placement="top" title="Botosani" data-content="contact info" class="undefined"><path class="land" d="M392.8 182.9C392.8 181.9 390.3 179.4 388.5 179.4 386.8 179.4 387.5 176.1 386.8 176.1 386 176.1 382.8 167.4 382.8 165.6 382.8 163.9 378.5 160.4 377.5 158.1 376.5 155.9 371.3 155.1 371.3 153.6 371.3 152.1 370 150.1 367.3 149.4 364.5 148.6 361.3 141.9 361.3 141.9 364 140.6 369.5 125.1 374.3 123.4 379.2 121.8 380.3 123.6 382.2 123.1 384 122.6 388.2 118.9 392.5 119.4 396.8 119.9 403.8 122.4 406.2 125.3 408.5 128.1 413.3 134.8 415.3 135.9 417.3 137.1 418.7 143.9 420.3 144.8 422 145.6 423.2 152.9 425 154.8 426.8 156.6 423.5 164.1 426.5 165.4 429.9 166.9 430.9 169.1 431.7 171.1 431.7 171.1 425.5 171.1 424.8 173.9 424 176.6 417.3 174.9 416 174.4 414.8 173.9 413.8 179.1 412 180.9 410.3 182.6 409.5 176.6 407.5 176.6 405.5 176.6 397.3 175.4 395.5 176.6 393.8 177.9 392.8 182.9 392.8 182.9Z" class="undefined"/></a><a tabindex="0" class="bd-popover" data-trigger="hover" data-toggle="popover" data-placement="top" title="Iasi" data-content="contact info" class="undefined"><path class="land" d="M382.8 195.6C381 195.9 385.8 193.6 384.5 192.9 383.3 192.1 381.3 186.9 381.3 185.9 381.3 184.9 383.8 185.4 385 185.4 386.3 185.4 388.5 189.1 390.5 189.1 392.5 189.1 392.8 183.9 392.8 182.9 392.8 182.9 393.8 177.9 395.5 176.6 397.3 175.4 405.5 176.6 407.5 176.6 409.5 176.6 410.3 182.6 412 180.9 413.8 179.1 414.8 173.9 416 174.4 417.3 174.9 424 176.6 424.8 173.9 425.5 171.1 431.7 171.1 431.7 171.1 432.4 172.7 433 174.2 434.5 175.3 438 177.8 440.5 178.4 441.8 180.4 443.2 182.4 442.2 187.4 444 188.6 445.8 189.8 452.8 194.4 454.2 196.6 455.5 198.8 459.2 206.8 461.5 208.4 463.8 210.1 470.3 212.6 472 214.9 473.7 217.3 475.5 222.1 474.8 224.6 474.8 224.6 469.5 230.1 466 227.1 462.5 224.1 461.8 227.9 460 226.9 458.3 225.9 458 222.9 458 219.9 458 216.9 453.3 221.1 453.3 222.6 453.3 224.1 450.3 219.1 448.5 218.1 446.8 217.1 446 219.6 446 222.1 446 224.6 444.8 225.4 439.5 225.4 434.3 225.4 432 223.9 430.8 225.4 429.5 226.9 422.8 226.4 422.8 226.4 422.8 226.4 420 219.9 418.3 219.6 416.5 219.4 424.5 216.6 424.5 216.6 424.5 216.6 422.8 205.6 414 209.1 405.3 212.6 406.5 213.9 405.3 214.1 404 214.4 398.8 208.1 395.8 207.9 392.8 207.6 389.8 207.4 389.8 205.1 389.8 202.9 385.5 195.1 382.8 195.6Z" class="undefined"/></a><a tabindex="0" class="bd-popover" data-trigger="hover" data-toggle="popover" data-placement="top" title="Neamt" data-content="contact info" class="undefined"><path class="land" d="M422.8 226.4C422.8 226.4 420 219.9 418.3 219.6 416.5 219.4 424.5 216.6 424.5 216.6 424.5 216.6 422.8 205.6 414 209.1 405.3 212.6 406.5 213.9 405.3 214.1 404 214.4 398.8 208.1 395.8 207.9 392.8 207.6 389.8 207.4 389.8 205.1 389.8 203 382.6 195.6 382.8 195.6 382.4 195.7 382.3 195.6 382.4 195.5 380.9 194.6 380.2 190 376 191.4 371.5 192.9 363.3 193.4 360.3 193.6 357.3 193.9 357 195.1 354 195.1 351 195.1 348.3 196.9 347 194.9 345.8 192.9 341.5 191.9 341.3 192.9 341 193.9 343.3 196.9 343 197.9 342.8 198.9 341 200.3 339.3 201.1 335.8 202.9 336.2 209.9 336.2 209.9 340.5 210.6 343 217.1 344 219.1 345 221.1 347.3 220.4 347.2 222.8 347 224.7 345.2 223.1 342.2 224.9 341.1 225.6 340.5 227.8 342.3 230.1 344.2 232.4 343.8 235.6 344.7 239.4 345.5 243.3 348.8 243.6 350.7 244.1 350.7 244.1 356.9 240.2 359.5 243.1 362.1 246 368.3 243.5 368.4 241.9 368.5 240.2 375.6 241.9 377.6 242.1 379.6 242.4 385.9 242.2 387.3 241 388.6 239.7 394.5 235.1 397.8 236.1 401 237.1 403.1 230.6 405.8 230.9 408.4 231.1 410.5 233.5 413.1 233.5 415.8 233.5 418.1 234.6 419.8 234.6 421.4 234.6 424 234.7 422.8 226.4Z" class="undefined"/></a><a tabindex="0" class="bd-popover" data-trigger="hover" data-toggle="popover" data-placement="top" title="Bacau" data-content="contact info" class="undefined"><path class="land" d="M380 290.4C379 284.9 376.3 279.3 374.2 276.6 372 273.9 372.3 268.6 370.3 267.1 368.3 265.6 368 270.6 366.7 270.3 365.3 269.9 364.7 262.8 360.7 262.3 356.7 261.8 354.3 263.3 354.8 260.4 355.3 257.8 357.8 259.3 358 257.1 358.2 254.9 357.8 249.8 355.5 245.9 353.2 242.1 352.5 244.6 350.7 244.1 350.7 244.1 356.9 240.2 359.5 243.1 362.1 246 368.2 243.5 368.4 241.9 368.5 240.2 375.6 241.9 377.6 242.1 379.6 242.4 385.9 242.2 387.2 241 388.6 239.7 394.5 235.1 397.7 236.1 401 237.1 403.1 230.6 405.7 230.9 408.4 231.1 410.5 233.5 413.1 233.5 415.7 233.5 418.1 234.6 419.7 234.6 420.8 234.6 422.3 234.7 422.8 232.4 422.8 232.4 423.2 238.4 430.2 238.1 428.7 242.6 428.5 245.1 428.5 245.1 428.5 245.1 439.2 263.1 439.7 266.9 440 268.5 439.4 271.1 439.7 273.6 440.2 276.9 441.5 280.2 441.5 280.9 441.5 282.1 437.2 277.4 436.5 278.1 435.7 278.9 435 282.9 432.5 279.4 430 275.9 424.2 279.1 423.2 279.9 422.2 280.6 421.5 284.4 420.2 284.4 419 284.4 414.2 285.4 413 285.9 411.7 286.4 410 287.6 409.5 288.6 409 289.6 401.5 288.6 400 287.6 398.5 286.6 395.2 284.4 392.5 286.6 389.7 288.9 389.7 291.4 388.7 292.4 387.7 293.4 380 290.4 380 290.4Z" class="undefined"/></a><a tabindex="0" class="bd-popover" data-trigger="hover" data-toggle="popover" data-placement="top" title="Vaslui" data-content="contact info" class="undefined"><path class="land" d="M478 283.8C477.8 281.1 478.5 273.1 480.3 268.8 482.2 264.4 481.7 262.3 482.8 259.8 484 257.3 482.3 251.8 483 247.8 483.7 243.8 480 235.9 479 233.8 478 231.6 474.2 227.1 474.8 224.6 474.8 224.6 469.5 230.1 466 227.1 462.5 224.1 461.8 227.9 460 226.9 458.3 225.9 458 222.9 458 219.9 458 216.9 453.3 221.1 453.3 222.6 453.3 224.1 450.3 219.1 448.5 218.1 446.8 217.1 446 219.6 446 222.1 446 224.6 444.8 225.4 439.5 225.4 434.3 225.4 432 223.9 430.8 225.4 429.5 226.9 422.8 226.4 422.8 226.4 423.2 229.4 423.1 231.3 422.8 232.5 422.8 232.5 422.8 232.5 422.8 232.4 422.8 232.4 423.3 238.4 430.3 238.1 428.8 242.6 428.5 245.1 428.5 245.1 428.5 245.1 439.3 263.1 439.8 266.9 440 268.5 439.4 271.1 439.8 273.6 440.2 276.9 441.5 280.1 441.5 280.9 441.5 280.9 445 287.6 445.7 290.4 446.3 293.3 449.7 289.6 449.5 286.9 449.3 284.3 447.7 281.3 448.2 281.3 448.7 281.3 455.7 281.6 459.5 284.4 463.3 287.3 461.8 280.3 463.5 280.3 465.2 280.3 478 283.8 478 283.8Z" class="undefined"/></a><a tabindex="0" class="bd-popover" data-trigger="hover" data-toggle="popover" data-placement="top" title="Galati" data-content="contact info" class="undefined"><path class="land" d="M484.2 333.1C481.4 331.1 479.3 325.6 479.3 324.1 479.3 322.6 482 320.6 482.8 319.6 483.7 318.6 482.8 308.9 482 308.4 481.2 307.9 472.7 304.9 475.7 304.6 478.2 304.3 478.3 301.1 479 299.3 479.7 297.4 478.2 286.4 478 283.8 478 283.8 465.2 280.3 463.5 280.3 461.8 280.3 463.3 287.3 459.5 284.4 455.7 281.6 448.7 281.3 448.2 281.3 447.7 281.3 449.3 284.3 449.5 286.9 449.7 289.6 446.3 293.3 445.7 290.4 445 287.6 441.4 281.1 441.4 281.1 441.4 281.1 439.3 282.1 438.3 284.4 437.3 286.8 430.8 286.6 429.8 287.1 428.8 287.6 425.3 289.8 426.2 291.8 427 293.8 427.5 301.8 429.5 303.8 431.5 305.8 435.7 312.6 435.8 313.9 436 315.3 439.7 319.3 441.3 319.6 443 319.9 446 325.9 447.2 331.1 452.8 335.8 460 334.8 461.5 337.1 463 339.4 467.5 336.8 469.2 337.1 470.8 337.4 473.7 339.6 477.7 335.3 479.8 334.9 487.3 335.4 484.2 333.1Z" class="undefined"/></a><a tabindex="0" class="bd-popover" data-trigger="hover" data-toggle="popover" data-placement="top" title="Vrancea" data-content="contact info" class="undefined"><path class="land" d="M390.5 323.5C393.4 323.5 397.4 326.5 398.6 328.4 399.9 330.2 407.9 330.1 410 329.7 412.1 329.4 416.1 335.2 416.8 335.2 417.4 335.2 422.6 334.5 422.1 337.4 421.6 340.2 425.8 337.7 426.9 337.1 428 336.5 430.9 337.4 431.4 339 431.9 340.6 438.4 342.7 439.5 340.2 440.6 337.7 447.2 331.1 447.2 331.1 446 325.9 443 319.9 441.3 319.6 439.7 319.3 436 315.3 435.8 313.9 435.7 312.6 431.5 305.8 429.5 303.8 427.5 301.8 427 293.8 426.2 291.8 425.3 289.8 428.8 287.6 429.8 287.1 430.8 286.6 437.3 286.8 438.3 284.4 439.3 282.1 441.4 281.1 441.4 281.1 440.6 281.1 437.2 277.4 436.5 278.1 435.7 278.9 435 282.9 432.5 279.4 430 275.9 424.2 279.1 423.2 279.9 422.2 280.6 421.5 284.4 420.2 284.4 419 284.4 414.2 285.4 413 285.9 411.7 286.4 410 287.6 409.5 288.6 409 289.6 401.5 288.6 400 287.6 398.5 286.6 395.2 284.4 392.5 286.6 389.7 288.9 389.7 291.4 388.7 292.4 387.7 293.4 380 290.4 380 290.4 381 295.9 378.8 299.9 378 303.4 377.2 306.9 379.2 312.5 380 313.8 380.2 314.2 387.6 323.5 390.5 323.5Z" class="undefined"/></a><a tabindex="0" class="bd-popover" data-trigger="hover" data-toggle="popover" data-placement="top" title="Buzau" data-content="contact info" class="undefined"><path class="land" d="M430.5 381.9C430.3 379.6 432.5 372.4 432.3 371.3 432.2 370.1 428.3 371.8 428 367.8 427.7 363.8 425.2 359.3 425 358.8 424.8 358.3 423.2 360.6 421.5 360.6 419.8 360.6 419.7 358.8 420.8 356.4 422 354.1 425.3 353.1 428 353.4 430.7 353.8 435 354.9 435.7 353.6 436.3 352.3 435.2 349.8 435.2 349.8 434.2 346.1 436.5 348.6 437 347.1 438 344.2 439.5 340.2 439.5 340.2 438.4 342.7 431.9 340.6 431.4 339 430.9 337.4 428 336.5 426.9 337.1 425.8 337.7 421.6 340.2 422.1 337.4 422.6 334.5 417.4 335.2 416.8 335.2 416.1 335.2 412.1 329.4 410 329.7 407.9 330.1 399.9 330.2 398.6 328.4 397.4 326.5 393.4 323.5 390.5 323.5 387.6 323.5 380.3 314.2 380 313.8 379.7 315.3 377.8 316.3 376.5 318.9 375.4 321.2 376.2 324.6 375 325.8 373.8 326.9 373.3 326.9 372 325.9 370.7 324.9 369.3 324.1 368.7 325.3 368 326.4 367 327.4 365.5 327.4 364 327.4 361.8 330.8 361.8 330.8 362 330.8 359.3 334.6 359.5 334.6 361.7 334.7 363.1 335.1 363.9 338.4 364.8 341.9 367.6 343 367.5 344.7 367.4 346.5 367.8 351.1 369.4 351.4 371 351.6 371 356.7 372.5 356.9 374 357 377.1 358.7 378.6 358.5 380.1 358.2 383.5 359.5 383.9 361.7 384.3 364 386 366.9 386 366.9 386 366.9 387.6 371.7 388.9 372.5 390.1 373.2 391.9 376.7 391.6 378 391.4 379.2 392.5 384.7 393.5 385.2 394.5 385.7 400.4 388 404.3 387.4 408.1 386.7 412.9 388 417 387.9 421.1 387.7 423.5 388.1 426.5 389.5 426.5 389.5 430.7 384.3 430.5 381.9Z" class="undefined"/></a><a tabindex="0" class="bd-popover" data-trigger="hover" data-toggle="popover" data-placement="top" title="Braila" data-content="contact info" class="undefined"><path class="land" d="M467.9 388.1C467.4 386.9 466.8 386.7 464.6 387 462.5 387.2 461.8 388.6 458.4 388 455 387.4 451.8 387.1 448.4 387.9 445 388.6 439.1 387.5 436.1 388.1 433.1 388.7 429.5 390.9 426.5 389.5 426.5 389.5 430.7 384.3 430.5 381.9 430.3 379.6 432.5 372.4 432.3 371.3 432.2 370.1 428.3 371.8 428 367.8 427.7 363.8 425.2 359.3 425 358.8 424.8 358.3 423.2 360.6 421.5 360.6 419.8 360.6 419.7 358.8 420.8 356.4 422 354.1 425.3 353.1 428 353.4 430.7 353.8 435 354.9 435.7 353.6 436.3 352.3 435.2 349.8 435.2 349.8 434.2 346.1 436.5 348.6 437 347.1 438 344.2 439.5 340.2 439.5 340.2 440.6 337.7 447.2 331.1 447.2 331.1 452.8 335.8 460 334.8 461.5 337.1 463 339.4 467.5 336.8 469.2 337.1 470.8 337.4 473.7 339.6 477.7 335.3 477.7 335.3 475.8 342.6 475.7 345.3 475.5 347.9 476.8 350.3 478.8 349.9 480.8 349.6 482.8 350.9 482.3 352.4 481.8 353.9 481.7 355.7 486.5 358.1 489.5 359.6 483 360.3 483 361.4 483 362.6 483.3 367.4 484.7 369.6 486 371.8 485.5 377.8 484.3 378.3 483.2 378.8 482.5 383.3 481.2 385.3 479.8 387.3 476.5 385.3 474 385.4 471.5 385.6 467.9 388.1 467.9 388.1Z" class="undefined"/></a><a tabindex="0" class="bd-popover" data-trigger="hover" data-toggle="popover" data-placement="top" title="Constanta" data-content="contact info" class="undefined"><path class="land" d="M481.2 385.3C479.6 387.1 476.5 385.3 474 385.4 471.5 385.6 467.9 388.1 467.9 388.1 468.4 389.4 470.1 392 473 392.7 475.9 393.5 478.5 398.6 480.4 402.1 482.3 405.6 483.3 406.6 482.9 411 482.5 415.4 482.6 419.4 480.3 422.2 477.9 425.1 476.6 426 475 427.2 473.4 428.5 469.8 427.2 467.3 429 464.8 430.7 461.3 432 459.5 432 457.8 432 454 431.9 451.8 434.2 449.5 436.6 446.8 438 445.4 438 445.4 438 438.4 439.5 434 438.1 439.7 441.3 439.5 443.3 443.7 445.6 447.8 447.9 455.7 446.6 457.8 446.1 460 445.6 463.3 447.9 465.3 449.3 467.3 450.6 472.2 448.9 474.7 447.6 477.2 446.3 479.7 454.8 482 457.4 484.3 460.1 486.3 463.1 489.5 462.6 492.7 462.1 502.2 465.9 508.2 466.6 514.2 467.3 516.3 467.3 518.7 462.3 521 457.3 515.8 436.9 514.3 436.9 512.8 436.9 509.7 433.4 511.5 430.4 513.3 427.4 524.2 411.9 527.2 406.3 529.2 402.5 534.6 395.2 538.7 390.3 538.7 390.3 526.7 389.1 521.8 390.8 517 392.4 518.5 393.4 517 393.4 515.5 393.4 511.2 396.8 508.8 395.4 506.5 394.1 504.8 391.6 503.2 391.6 501.5 391.6 502.8 394.6 501.5 394.6 500.2 394.6 499 392.3 498.3 392.3 497.7 392.3 496.5 392.6 495.3 389.9 494.2 387.3 491.5 386.6 490.2 386.6 488.8 386.6 487.7 387.1 486.8 386.1 486 385.1 482.8 383.4 481.2 385.3Z" class="undefined"/></a><a tabindex="0" class="bd-popover" data-trigger="hover" data-toggle="popover" data-placement="top" title="Tulcea" data-content="contact info" class="undefined"><path class="land" d="M579.2 352.8C579 350.3 576.5 348.6 575.3 346.8 574.2 344.9 570.8 338.3 568.2 334.8 565.5 331.3 558.5 331.1 553.5 330.3 548.5 329.4 544.2 333.4 539.7 335.8 535.2 338.1 531.7 342.1 528.7 343.4 525.7 344.8 523 342.3 521.5 342.8 520 343.3 521.7 347.3 520.5 348.8 519.3 350.3 514 349.4 510 347.9 506 346.4 496.5 344.6 494.2 342.1 491.8 339.6 487.3 334.4 484.2 333.1 487.3 335.4 479.8 334.9 477.7 335.3 477.7 335.3 475.8 342.6 475.7 345.3 475.5 347.9 476.8 350.3 478.8 349.9 480.8 349.6 482.8 350.9 482.3 352.4 481.8 353.9 481.7 355.7 486.5 358.1 489.5 359.6 483 360.3 483 361.4 483 362.6 483.3 367.4 484.7 369.6 486 371.8 485.5 377.8 484.3 378.3 483.2 378.8 482.5 383.3 481.2 385.3 482.8 383.4 486 385.1 486.8 386.1 487.7 387.1 488.8 386.6 490.2 386.6 491.5 386.6 494.2 387.3 495.3 389.9 496.5 392.6 497.7 392.3 498.3 392.3 499 392.3 500.2 394.6 501.5 394.6 502.8 394.6 501.5 391.6 503.2 391.6 504.8 391.6 506.5 394.1 508.8 395.4 511.2 396.8 515.5 393.4 517 393.4 518.5 393.4 517 392.4 521.8 390.8 526.7 389.1 538.7 390.3 538.7 390.3 538.7 390.3 538.7 390.3 538.7 390.3 540.8 387.9 542.5 386 543.3 385.4 545.8 383.8 557 381.8 561.2 381.1 565.3 380.4 572.2 375.4 575.8 372.4 579.5 369.4 579.3 355.3 579.2 352.8Z" class="undefined"/></a><a tabindex="0" class="bd-popover" data-trigger="hover" data-toggle="popover" data-placement="top" title="Mehedinti" data-content="contact info" class="undefined"><path class="land" d="M180 448.1C180.3 449.5 172.2 441.9 167.7 439.9 163.2 437.9 158.3 432.1 158 429.8 157.7 427.4 153.8 429.3 152.5 428.1 151.2 426.9 145.8 417.1 147.5 414.9 149.2 412.8 151.5 413.6 151.5 413.6 151.5 413.6 155.5 411.4 155.7 410.4 155.8 409.4 164.2 411.8 164.7 410.8 165.2 409.8 165.3 405.1 163.3 404.6 161.3 404.1 156 404.8 155 403.6 154 402.4 149.5 397.9 146 398.1 142.5 398.3 137.3 401.4 136.8 402.6 136.3 403.8 133.5 409.6 132.3 409.9 131.2 410.3 126.8 415.8 125 414.8 123.2 413.8 119.8 408.4 119.5 404.4 119.5 404.4 120 402.6 126.7 404.1 129.7 404.8 125.9 399.8 126.9 396.5 127.9 393.2 130.3 394.9 130.8 393.9 131.3 392.9 129.4 389.4 130.4 389.2 131.4 389.1 135.8 389.9 137.1 391.4 138.5 392.9 139.8 394.1 141.6 393.4 143.5 392.6 147.8 387 149.8 378.7 151.8 370.5 156.1 366.4 159 365.9 159 365.9 173.3 373.4 174.3 383.1 175.3 392.9 180 398.1 184.8 399.1 189.5 400.1 204.3 402.9 205.3 408.4 206.3 413.9 199.3 410.6 197.5 411.4 195.8 412.1 190.3 417.1 190.5 419.9 190.8 422.6 194.8 424.1 192.8 425.6 190.8 427.1 184.5 429.9 184.5 434.1 184.5 438.4 187.5 441.9 184 441.9 180.5 441.9 178 439.1 180 448.1Z" class="undefined"/></a><a tabindex="0" class="bd-popover" data-trigger="hover" data-toggle="popover" data-placement="top" title="Dolj" data-content="contact info" class="undefined"><path class="land" d="M245.8 471.1C247.5 466.9 250.8 464.6 252.3 458.6 253.8 452.6 249 454.9 248.3 451.9 247.5 448.9 251.5 446.4 251 440.4 250.5 434.4 242.5 429.1 240 426.1 237.5 423.1 232.5 419.1 231.8 417.6 231 416.1 232 414.1 232 411.1 232 408.1 229.3 403.6 227.5 403.6 225.8 403.6 224 391.9 222.5 398.6 221 405.4 219 407.1 216.5 405.9 214 404.6 205.3 408.4 205.3 408.4 206.3 413.9 199.3 410.6 197.5 411.4 195.8 412.1 190.3 417.1 190.5 419.9 190.8 422.6 194.8 424.1 192.8 425.6 190.8 427.1 184.5 429.9 184.5 434.1 184.5 438.4 187.5 441.9 184 441.9 180.5 441.9 178 439.1 180 448.1 180.5 449.4 179 451.9 176.3 452.4 173.7 452.9 171 455.9 170.5 461.6 170 467.3 174.8 467.6 176.2 468.3 177.5 468.9 188.2 468.1 189.7 467.3 191.2 466.4 199.2 465.6 201.7 465.6 204.2 465.6 211.5 467.4 213 468.6 214.5 469.8 218 468.4 220.3 468.1 222.7 467.8 225.3 470.4 228.7 471.1 231.4 471.7 236.3 474.9 244.8 476.6 244.8 476.6 244 475.4 245.8 471.1Z" class="undefined"/></a><a tabindex="0" class="bd-popover" data-trigger="hover" data-toggle="popover" data-placement="top" title="Gorj" data-content="contact info" class="undefined"><path class="land" d="M225.3 397.6C225.5 394.9 224.8 382.9 224.8 378.9 224.8 374.9 225.8 372.9 227.5 369.9 229.3 366.9 230.3 363.4 230 362.6 229.8 361.9 228.8 356.9 229.8 353.6 230.8 350.4 226.5 349.6 226.5 349.6 221.5 349.9 215.4 346.6 215.4 346.6 215.1 348.7 206.4 349.7 203.9 349.5 201.4 349.2 198.9 350.2 196.3 351.2 193.6 352.2 188.4 354 186.9 354 185.4 354 183 355 181 355.2 179 355.5 173.4 354.6 168.9 353.5 164.4 352.4 158.9 357 157.1 357.4 155.4 357.7 153.8 361.6 154.1 362.9 154.5 364.1 161.9 365.4 159 365.9 159 365.9 173.3 373.4 174.3 383.1 175.3 392.9 180 398.1 184.8 399.1 189.5 400.1 204.3 402.9 205.3 408.4 205.3 408.4 214 404.6 216.5 405.9 219 407.1 221 405.4 222.5 398.6 222.5 398.6 225 400.4 225.3 397.6Z" class="undefined"/></a><a tabindex="0" class="bd-popover" data-trigger="hover" data-toggle="popover" data-placement="top" title="Valcea" data-content="contact info" class="undefined"><path class="land" d="M274.4 327.9C273 326.6 269.5 332.2 267.4 331.4 265.3 330.5 259 330.1 255.9 331 252.8 331.9 246.6 336.1 243 336.1 239.4 336.1 236.1 333.5 232.8 333.2 229.4 333 219.4 337.5 217.1 338.7 214.9 340 215.6 344.5 215.4 346.6 215.4 346.6 221.5 349.9 226.5 349.6 226.5 349.6 230.8 350.4 229.8 353.6 228.8 356.9 229.8 361.9 230 362.6 230.3 363.4 229.3 366.9 227.5 369.9 225.8 372.9 224.8 374.9 224.8 378.9 224.8 382.9 225.5 394.9 225.3 397.6 225.2 398.1 225.1 398.4 224.9 398.7 225.8 400.7 226.6 403.6 227.5 403.6 229.3 403.6 232 408.1 232 411.1 232 411.1 233.5 413.1 236.8 411.9 240 410.6 241 412.9 241.8 413.1 242.5 413.4 246 410.1 249 410.4 252 410.6 253.3 404.9 254.3 405.4 255.3 405.9 255.8 411.4 258.3 409.9 260.8 408.4 256.5 402.9 256.5 400.6 256.5 398.4 253.8 393.4 258 387.9 262.3 382.4 263.8 381.6 263.8 383.9 263.8 386.1 265.8 387.9 267.3 380.6 268.8 373.4 269.8 368.1 268.3 363.1 266.8 358.1 266.8 352.6 268 349.1 269.3 345.6 267.8 339.6 269 337.9 270.3 336.1 275.1 328.5 274.4 327.9Z" class="undefined"/></a><a tabindex="0" class="bd-popover" data-trigger="hover" data-toggle="popover" data-placement="top" title="Olt" data-content="contact info" class="undefined"><path class="land" d="M283.2 468.8C283.5 467.3 279.5 468.8 278.8 466.4 278.2 464.1 276 459.8 274.8 456.3 273.7 452.8 279.7 452.4 280.7 449.9 281.7 447.4 290.7 446.1 289.3 443.9 288 441.8 288.2 434.8 288.5 431.1 288.8 427.4 290.7 422.4 290.7 422.4 290 421.9 285.7 422.8 283.5 422.8 281.3 422.8 282.8 418.9 281.7 416.4 280.5 413.9 282.8 410.8 282.8 409.4 282.8 408.1 280.5 402.8 280.3 401.4 280.2 400.1 281.7 399.1 282 396.9 282.3 394.8 280.3 395.9 276 395.6 271.7 395.3 271.2 383.9 270.8 383.4 270.5 382.9 267.2 388.1 265.7 389.1 264.2 390.1 263.8 383.9 263.8 383.9 263.8 381.6 262.3 382.4 258 387.9 253.8 393.4 256.5 398.4 256.5 400.6 256.5 402.9 260.8 408.4 258.3 409.9 255.8 411.4 255.3 405.9 254.3 405.4 253.3 404.9 252 410.6 249 410.4 246 410.1 242.5 413.4 241.8 413.1 241 412.9 240 410.6 236.8 411.9 233.5 413.1 232 411.1 232 411.1 232 414.1 231 416.1 231.8 417.6 232.5 419.1 237.5 423.1 240 426.1 242.5 429.1 250.5 434.4 251 440.4 251.5 446.4 247.5 448.9 248.3 451.9 249 454.9 253.8 452.6 252.3 458.6 250.8 464.6 247.5 466.9 245.8 471.1 244.1 475.2 244.7 476.5 244.8 476.6 246.6 477 248.5 477.3 250.7 477.4 262.8 478.4 264.3 473.4 269.3 472.9 272.2 472.7 275.6 473.1 278.5 473.7L283.2 468.8Z" class="undefined"/></a><a tabindex="0" class="bd-popover" data-trigger="hover" data-toggle="popover" data-placement="top" title="Arges" data-content="contact info" class="undefined"><path class="land" d="M301.6 421.2C304.4 420.2 309.9 418.6 311.5 418.7 313.1 418.9 313.8 416 314.4 414.1 315 412.2 316.1 409.9 313.8 408.9 311.4 407.9 310.3 404.2 309.3 402.1 308.3 400 312 398.7 312.3 397.5 312.5 396.2 308.6 396.6 309.6 395.2 310.6 393.9 310.4 391.9 310.3 387.1 310.1 382.4 309.5 371.4 308.3 371.1 307 370.9 307.4 368.5 307.8 367.7 308.1 367 306.9 365.5 306.4 361.1 305.9 356.7 309.3 359.4 311.1 360.6 313 361.9 314.9 359.4 315.1 355.5 315.4 351.6 317 343.5 317 343.5 315.1 343.5 313.5 340.5 313.5 340.5 313.5 340.5 312.8 336.1 309.9 335 307 333.9 304 331.4 302.1 330.1 300.3 328.9 291.6 329 289.8 328.7 287.9 328.5 285 327.7 283.5 327.6 282 327.5 276.6 327.1 274.4 327.9 275.1 328.5 270.3 336.1 269 337.9 267.8 339.6 269.3 345.6 268 349.1 266.8 352.6 266.8 358.1 268.3 363.1 269.8 368.1 268.8 373.4 267.3 380.6 265.9 387.2 264.1 386.3 263.8 384.4 263.9 385.9 264.4 389.9 265.7 389.1 267.2 388.1 270.5 382.9 270.8 383.4 271.2 383.9 271.7 395.3 276 395.6 280.3 395.9 282.3 394.8 282 396.9 281.7 399.1 280.2 400.1 280.3 401.4 280.5 402.8 282.8 408.1 282.8 409.4 282.8 410.8 280.5 413.9 281.7 416.4 282.8 418.9 281.3 422.8 283.5 422.8 285.7 422.8 290 421.9 290.7 422.4 290.7 422.4 298.9 422.2 301.6 421.2Z" class="undefined"/></a><a tabindex="0" class="bd-popover" data-trigger="hover" data-toggle="popover" data-placement="top" title="Teleorman" data-content="contact info" class="undefined"><path class="land" d="M341.5 476.9C338.3 478.3 329.8 482.8 322.2 480.9 314.5 479.1 311.3 476.1 309 476.1 306.7 476.1 292.8 474.8 291.5 475.1 290.2 475.4 286.2 476.4 283.5 475.3 282.4 474.8 280.5 474.2 278.4 473.7 278.4 473.7 278.5 473.7 278.5 473.7L283.2 468.8C283.5 467.3 279.5 468.8 278.8 466.4 278.2 464.1 276 459.8 274.8 456.3 273.7 452.8 279.7 452.4 280.7 449.9 281.7 447.4 290.7 446.1 289.3 443.9 288 441.8 288.2 434.8 288.5 431.1 288.8 427.4 290.7 422.4 290.7 422.4 290.7 422.4 298.9 422.2 301.6 421.2 304.4 420.2 309.9 418.6 311.5 418.7 311.5 418.7 312.8 421.1 315.8 418.6 318.8 416.1 319.8 415.1 319.8 413.9 319.8 412.8 321.7 412.4 322.8 412.6 324 412.8 327.8 414.1 327.8 415.9 327.8 417.8 324.8 418.1 325.2 420.1 325.5 422.1 327 427.3 330.5 427.3 334 427.3 339.5 429.1 339.5 430.9 339.5 432.8 343.5 439.3 341.8 442.4 340.2 445.6 334.5 443.8 334.7 446.6 334.8 449.4 335.5 454.3 336.8 457.3 338.2 460.3 338.5 462.8 338.3 465.8 338.2 468.8 341.5 476.9 341.5 476.9Z" class="undefined"/></a><a tabindex="0" class="bd-popover" data-trigger="hover" data-toggle="popover" data-placement="top" title="Dambovita" data-content="contact info" class="undefined"><path class="land" d="M327.8 415.9C327.8 416.1 327.8 415.6 327.7 415.4 327.1 413.8 323.9 412.8 322.8 412.6 321.7 412.4 319.8 412.8 319.8 413.9 319.8 415.1 318.8 416.1 315.8 418.6 312.8 421.1 311.5 418.7 311.5 418.7 313.1 418.9 313.8 416 314.4 414.1 315 412.2 316.1 409.9 313.8 408.9 311.4 407.9 310.3 404.2 309.3 402.1 308.3 400 312 398.7 312.3 397.5 312.5 396.2 308.6 396.6 309.6 395.2 310.6 393.9 310.4 391.9 310.3 387.1 310.1 382.4 309.5 371.4 308.3 371.1 307 370.9 307.4 368.5 307.8 367.7 308.1 367 306.9 365.5 306.4 361.1 305.9 356.7 309.3 359.4 311.1 360.6 313 361.9 314.9 359.4 315.1 355.5 315.4 351.6 317 343.5 317 343.5 318.9 343.5 322.8 340.7 324.8 339.6 324.8 339.6 326.3 343.4 326.3 345.6 326.3 347.9 329.3 351.1 330.3 352.4 331.3 353.6 328.5 355.4 329 357.1 329.5 358.9 334.5 363.4 335.5 364.4 336.5 365.4 340 370.1 339 373.4 338 376.6 343.8 378.6 345.8 378.6 347.8 378.6 344.3 384.6 345.3 386.9 346.3 389.1 349.5 385.6 351.3 388.1 353 390.6 353.3 399.1 354.8 401.1 356.3 403.1 354.8 406.6 351.3 409.6 347.8 412.6 345.8 413.1 344.5 412.4 343.3 411.6 340.3 409.4 338.3 410.4 336.3 411.4 334 409.4 332.3 410.1 332.3 410.1 329.2 409.3 327.8 415.9Z" class="undefined"/></a><a tabindex="0" class="bd-popover" data-trigger="hover" data-toggle="popover" data-placement="top" title="Giurgiu" data-content="contact info" class="undefined"><path class="land" d="M351.3 409.6C351.3 409.6 345.8 413.1 344.5 412.4 343.3 411.6 340.3 409.4 338.3 410.4 336.3 411.4 334 409.4 332.3 410.1 332.3 410.1 329.2 409.3 327.8 415.9 327.8 417.8 324.8 418.1 325.2 420.1 325.5 422.1 327 427.3 330.5 427.3 334 427.3 339.5 429.1 339.5 430.9 339.5 432.8 343.5 439.3 341.8 442.4 340.2 445.6 334.5 443.8 334.7 446.6 334.8 449.4 335.5 454.3 336.8 457.3 338.2 460.3 338.5 462.8 338.3 465.8 338.2 468.8 341.5 476.9 341.5 476.9 344.7 475.6 354.7 466.4 356 464.6 357.3 462.8 364.7 457.4 367.8 454.9 370.2 453.1 379.6 449.2 385.2 447.4 385.2 447.4 377.5 447.4 382.5 442.9 387.5 438.4 380.5 432.4 379 431.9 377.5 431.4 376.5 429.9 375 430.9 373.5 431.9 370.5 434.6 368.5 432.9 366.5 431.1 353.8 422.9 350.5 421.6 347.3 420.4 345.8 412.6 351.3 409.6Z" class="undefined"/></a><a tabindex="0" class="bd-popover" data-trigger="hover" data-toggle="popover" data-placement="top" title="Ialomita" data-content="contact info" class="undefined"><path class="land" d="M480.4 402.1C478.5 398.6 475.9 393.5 473 392.7 470.1 392 468.4 389.4 467.9 388.1 467.4 386.9 466.8 386.7 464.6 387 462.5 387.2 461.8 388.6 458.4 388 455 387.4 451.8 387.1 448.4 387.9 445 388.6 439.1 387.5 436.1 388.1 433.1 388.7 429.5 390.9 426.5 389.5 423.5 388.1 421.1 387.7 417 387.9 412.9 388 408.1 386.7 404.3 387.4 400.4 388 394.5 385.7 393.5 385.2 392.5 384.7 391.4 379.2 391.6 378 391.9 376.7 390.1 373.2 388.9 372.5 387.6 371.7 386 366.9 386 366.9 386 366.9 384.3 364 383.9 361.7 383.5 359.5 380.1 358.2 378.6 358.5 377.1 358.7 374 357 372.5 356.9 371 356.7 371 351.6 369.4 351.4 367.8 351.1 367.4 346.5 367.5 344.7 367.6 343 364.8 341.9 363.9 338.4 363 334.9 358.8 334.7 356.6 334.6 354.5 334.5 353.3 335.2 352.1 336.5 351 337.7 349 339.5 348.3 338.4 347.5 337.2 344.4 335.5 342.3 335 340.1 334.5 334.5 336 332.8 336 331 336 326.8 338.5 324.8 339.6 324.8 339.6 326.3 343.4 326.3 345.6 326.3 347.9 329.3 351.1 330.3 352.4 331.3 353.6 328.5 355.4 329 357.1 329.5 358.9 334.5 363.4 335.5 364.4 336.5 365.4 340 370.1 339 373.4 338 376.6 343.8 378.6 345.8 378.6 347.8 378.6 344.3 384.6 345.3 386.9 346.3 389.1 349.5 385.6 351.3 388.1 353 390.6 353.3 399.1 354.8 401.1 356.3 403.1 354.8 406.6 351.3 409.6 350.6 410.2 350 410.7 349.4 411.1 346.2 414.6 347.7 420.5 350.5 421.6 353.8 422.9 366.5 431.1 368.5 432.9 370.5 434.6 373.5 431.9 375 430.9 376.5 429.9 377.5 431.4 379 431.9 380.5 432.4 387.5 438.4 382.5 442.9 377.5 447.4 385.2 447.4 385.2 447.4 385.2 447.4 385.2 447.4 385.2 447.4 387.1 446.8 388.5 446.4 389.2 446.4 391.7 446.4 396 445.1 398.5 444.6 401 444.1 407.5 440.6 407.5 440.6 407.5 440.6 415.5 439.1 418 438.1 420.5 437.1 434 438.1 434 438.1 438.4 439.5 445.4 438 445.4 438 446.8 438 449.5 436.6 451.8 434.2 454 431.9 457.8 432 459.5 432 461.3 432 464.8 430.7 467.3 429 469.8 427.2 473.4 428.5 475 427.2 476.6 426 477.9 425.1 480.3 422.2 482.6 419.4 482.5 415.4 482.9 411 483.3 406.6 482.3 405.6 480.4 402.1Z" class="undefined"/></a><a tabindex="0" class="bd-popover" data-trigger="hover" data-toggle="popover" data-placement="top" title="Calarasi" data-content="contact info" class="undefined"><path class="land" d="M375 430.9C375.1 432.7 377.5 431.4 379 431.9 380.5 432.4 387.5 438.4 382.5 442.9 377.5 447.4 385.2 447.4 385.2 447.4 385.2 447.4 385.2 447.4 385.2 447.4 387.1 446.8 388.5 446.4 389.2 446.4 391.7 446.4 396 445.1 398.5 444.6 401 444.1 407.5 440.6 407.5 440.6 407.5 440.6 415.5 439.1 418 438.1 420.5 437.1 434 438.1 434 438.1 438.4 439.5 445.4 438 445.4 438 446.8 438 449.5 436.6 451.8 434.2 454 431.9 457.8 432 459.5 432 461.3 432 464.8 430.7 467.3 429 468.4 428.2 469.9 428 471.3 427.9 471.3 427.9 468 425.1 465 421.4 462 417.6 462.3 413.6 459.5 413.6 456.8 413.6 443.3 408.4 438.8 409.6 434.3 410.9 422.8 412.6 421 411.4 419.3 410.1 419.5 408.1 417.5 408.1 415.5 408.1 404 409.9 402 408.1 400 406.4 396.3 403.6 395 406.6 393.8 409.6 389.5 407.4 388 406.4 386.5 405.4 383 410.1 379.8 408.1 382.3 414.4 383.3 417.9 382.3 419.1 381.3 420.4 378 422.4 376.5 424.6 375 426.9 374.8 427.1 375 430.9Z" class="undefined"/></a><a tabindex="0" class="bd-popover" data-trigger="hover" data-toggle="popover" data-placement="top" title="Prahova" data-content="contact info" class="undefined"><path class="land" d="M374.5 392.1C376.1 391.7 378.5 390.6 379.5 390.6 380.5 390.6 385.3 390.6 386.8 388.1 388.3 385.6 393.5 385.2 393.5 385.2 392.5 384.7 391.4 379.2 391.6 378 391.9 376.7 390.1 373.2 388.9 372.5 387.6 371.7 386 366.9 386 366.9 386 366.9 384.3 364 383.9 361.7 383.5 359.5 380.1 358.2 378.6 358.5 377.1 358.7 374 357 372.5 356.9 371 356.7 371 351.6 369.4 351.4 367.8 351.1 367.4 346.5 367.5 344.7 367.6 343 364.8 341.9 363.9 338.4 363 334.9 358.8 334.7 356.6 334.6 354.5 334.5 353.3 335.2 352.1 336.5 351 337.7 349 339.5 348.3 338.4 347.5 337.2 344.4 335.5 342.3 335 340.1 334.5 334.5 336 332.8 336 331 336 326.8 338.5 324.8 339.6 324.8 339.6 326.3 343.4 326.3 345.6 326.3 347.9 329.3 351.1 330.3 352.4 331.3 353.6 328.5 355.4 329 357.1 329.5 358.9 334.5 363.4 335.5 364.4 336.5 365.4 340 370.1 339 373.4 338 376.6 343.8 378.6 345.8 378.6 347.8 378.6 344.3 384.6 345.3 386.9 346.3 389.1 349.5 385.6 351.3 388.1 352.4 389.8 352.9 394.1 353.6 397.4 353.6 397.4 356 392.1 359.5 392.1 363 392.1 373.5 392.4 374.5 392.1Z" class="undefined"/></a><a tabindex="0" class="bd-popover" data-trigger="hover" data-toggle="popover" data-placement="top" title="Bucuresti" data-content="contact info" class="undefined"><path class="land" d="M379.8 408.1C375.3 406.6 376 405.9 376 403.4 376 400.9 373.8 393.6 374.5 392.1 373.5 392.4 363 392.1 359.5 392.1 356 392.1 353.6 397.4 353.6 397.4 353.9 399.1 354.3 400.4 354.8 401.1 356.3 403.1 354.8 406.6 351.3 409.6 350.6 410.2 350 410.7 349.4 411.1 346.2 414.6 347.7 420.5 350.5 421.6 353.8 422.9 366.5 431.1 368.5 432.9 370.5 434.6 373.5 431.9 375 430.9 374.8 427.1 375 426.9 376.5 424.6 378 422.4 381.3 420.4 382.3 419.1 383.3 417.9 382.3 414.4 379.8 408.1Z" class="undefined"/></a><a tabindex="0" class="bd-popover" data-trigger="hover" data-toggle="popover" data-placement="top" title="Satu Mare" data-content="contact info" class="undefined"><path class="land" d="M217.2 149.6C215.8 148.2 215.3 145.8 215.3 145.8 212.6 148.5 203.7 140.8 202 139.4 200.3 138.1 193 134.9 192.2 137.3 191.3 139.6 186.2 141.9 184.5 142.3 182.8 142.6 180.7 142.4 179.3 145.4 178 148.4 175 149.4 173.5 150.1 172 150.8 170.5 156.4 167.8 158.3 165.2 160.1 158.8 158.4 157.5 158.3 156.2 158.1 148.7 159.8 147 161.4 145.3 163.1 141.5 165.4 141.5 165.4 139.8 165.6 138.1 172.1 138.2 172.6 138.3 173.1 143.5 173.6 143.5 175.6 143.5 177.6 142 180.9 144.5 182.1 147 183.4 145.3 185.1 146.8 185.4 148.3 185.6 151 184.6 153.3 185.1 155.5 185.6 156.3 185.9 157.3 186.9 158.3 187.9 158.3 190.9 159.8 190.9 161.3 190.9 165 188.4 167 187.4 169 186.4 172 186.1 172 186.1 172 186.1 173.1 186.7 173.7 186.1 174.3 185.5 176.8 186.6 177.4 187.6 178 188.6 180.2 190.2 181 190.2 181.8 190.2 185.3 190.8 186.3 191.4 187.4 192.1 188.5 190.1 189.1 189.9 189.7 189.8 190.4 185.9 190 184.9 190 184.9 183.5 185.9 182 185.1 180.5 184.3 180.5 183.1 181 182.4 181.5 181.8 184.2 181.6 185.8 180.8 187.5 179.9 187.3 177.3 187.2 176.4 187 175.6 188.7 175.4 189.7 174.8 190.7 174.1 190.8 171.6 192 171.6 193.2 171.6 196.7 177.1 198.8 176.9 201 176.8 199.5 174.4 200.5 173.1 201.5 171.8 203.2 170.8 203.7 170.1 204.2 169.4 205.7 169.3 205.7 168.4 205.7 167.6 203.2 164.6 200.5 163.8 197.8 162.9 196.7 162.4 196.7 161.9 196.7 161.4 198.7 159.1 200.7 159.1 202.7 159.1 207.5 159.8 208.7 159.6 209.8 159.4 213.7 158.3 215.3 157.4 217 156.6 217.8 154.4 218.8 154.4 219.8 154.4 221.5 153.4 221.3 152.6 221.2 152.2 218.7 151.3 217.2 149.6Z" class="undefined"/></a><a tabindex="0" class="bd-popover" data-trigger="hover" data-toggle="popover" data-placement="top" title="Maramures" data-content="contact info" class="undefined"><path class="land" d="M294.3 171.3C295.8 169.4 299.8 167.1 292.2 162.3 288.2 161.1 282.2 155.8 279.7 154.4 277.2 153.1 273.8 147.3 268.5 146.8 263.2 146.3 250.5 151.8 249 150.8 247.5 149.8 240 146.4 237.8 147.1 235.7 147.8 231.3 144.1 229.3 144.8 227.3 145.4 224.5 142.8 221.2 142.8 217.8 142.8 217 144.1 215.3 145.8 215.3 145.8 215.8 148.2 217.2 149.6 218.7 151.3 221.2 152.2 221.3 152.6 221.5 153.4 219.8 154.4 218.8 154.4 217.8 154.4 217 156.6 215.3 157.4 213.7 158.3 209.8 159.4 208.7 159.6 207.5 159.8 202.7 159.1 200.7 159.1 198.7 159.1 196.7 161.4 196.7 161.9 196.7 162.4 197.8 162.9 200.5 163.8 203.2 164.6 205.7 167.6 205.7 168.4 205.7 169.3 204.2 169.4 203.7 170.1 203.2 170.8 201.5 171.8 200.5 173.1 199.5 174.4 201 176.8 198.8 176.9 196.7 177.1 193.2 171.6 192 171.6 190.8 171.6 190.7 174.1 189.7 174.8 188.7 175.4 187 175.6 187.2 176.4 187.3 177.3 187.5 179.9 185.8 180.8 184.2 181.6 181.5 181.8 181 182.4 180.5 183.1 180.5 184.3 182 185.1 183.5 185.9 190 184.9 190 184.9 190 184.9 193.3 183.9 194.5 184.9 195.7 185.9 197.7 185.4 199.5 185.8 201.3 186.1 201.5 186.9 203.3 187.6 205.2 188.3 209.2 188.8 210.5 188.8 211.8 188.8 214.7 190.9 217.8 188.9 221 186.9 222.7 190.3 222.7 190.3 222.7 190.3 224.5 194.3 226 193.9 227.5 193.6 229.3 192.8 230.2 192.8 231 192.8 231.5 190.9 232.8 190.9 234.2 190.9 237.2 192.3 238.7 192.1 240.2 191.9 241.3 190.9 242.3 190.4 243.3 189.9 244.7 187.8 245.2 186.4 245.7 185.1 245.3 181.3 246.5 181.3 247.7 181.3 254 180.3 254.8 179.4 255.7 178.6 258.3 175.1 260.5 174.9 262.7 174.8 268.7 173.8 271.5 174.6 274.3 175.4 276.5 176.8 277.5 176.8 278.5 176.8 279.8 173.6 281.3 173.6 282.8 173.6 288.3 172.3 290 172.3 291.7 172.3 294.3 171.3 294.3 171.3Z" class="undefined"/></a><a tabindex="0" class="bd-popover" data-trigger="hover" data-toggle="popover" data-placement="top" title="Bihor" data-content="contact info" class="undefined"><path class="land" d="M159.8 190.9C158.9 189.7 158.3 187.9 157.3 186.9 156.3 185.9 155.5 185.6 153.3 185.1 151 184.6 148.3 185.6 146.8 185.4 145.3 185.1 147 183.4 144.5 182.1 142 180.9 143.5 177.6 143.5 175.6 143.5 173.6 138.3 173.1 138.2 172.6 137 173.6 128.7 178.9 126.8 180.3 125 181.6 128.5 186.6 125.2 187.9 121.8 189.3 117.2 202.4 116.8 204.9 116.5 207.4 108.2 213.1 106.3 214.1 104.5 215.1 107.7 222.1 105.8 222.3 104 222.4 103.8 229.6 101.8 229.9 99.8 230.3 95.8 237.4 95.8 238.8 95.8 240.1 97.7 244.4 95.2 245.1 96.6 248.4 99.5 246.9 99.9 247.6 100.3 248.4 102.9 245.7 103.8 245.6 104.6 245.5 110.5 246.4 112.1 246 113.8 245.6 114 243.7 115 243.7 116 243.7 118.3 246 119.6 246 121 246 127.3 244.7 129.3 246.6 131.3 248.5 132.3 249.4 132.6 249.4 133 249.4 134 253.2 134.1 254.1 134.3 255 137.8 257.6 139.8 257.7 141.8 257.9 144.6 260.7 146.4 262.7 148.1 264.7 153.8 262 156.6 265 157.1 265.4 159.8 265.5 162 265.6 162 265.6 162.8 263.5 163.9 262.4 165 261.2 162.3 259.1 162.3 257.7 162.3 256.4 163.3 252.9 165.6 251.9 168 250.9 169.4 251.7 169.6 250.6 169.9 249.5 170.9 246 170.3 245.6 169.6 245.2 166.8 246.2 166.8 245.5 166.8 244.7 167.8 240 165.8 238.7 163.8 237.5 163.5 236.2 162.5 235.1 161.5 234 162 233.6 162 233.6 162 233.6 166.5 233.7 167 232.9 167.5 232 167.6 229.2 167.6 229.2 167.6 229.2 170.1 226.7 169.4 225.7 168.6 224.7 165.3 224 164.4 222.4 163.5 220.7 166 219.5 166 218.1 166 216.7 164.1 212.9 161 213.4 157.9 213.9 157.1 211.9 157.1 211.1 157.1 210.4 157 205.2 155.6 205.4 154.3 205.5 153.6 205.9 153.6 204.5 153.6 203.1 155.3 202.2 156 201.6 156.8 201 157.1 195.9 157.4 195 157.6 194.1 161.3 192.9 159.8 190.9Z" class="undefined"/></a><a tabindex="0" class="bd-popover" data-trigger="hover" data-toggle="popover" data-placement="top" title="Arad" data-content="contact info" class="undefined"><path class="land" d="M52.5 286.5C52.8 288.1 56.6 289.5 57.4 289.5 58.1 289.5 58.8 290.9 59 291.6 59.3 292.4 63.8 292.2 65.6 292.6 67.5 293 68.3 295.6 69 296.5 69.8 297.4 71.1 295 71.9 294.6 72.6 294.2 73.1 295.1 74.4 296.2 75.6 297.4 77.1 297.5 78.1 296.2 79.1 295 81 294.9 81.5 295.9 82 296.9 84.3 296.7 85.4 296.6 86.5 296.5 87.6 294.1 87.6 293.2 87.6 292.4 91.1 291.2 92.6 291.1 94.1 291 93.9 294.2 93.9 294.2 94.1 295.9 97.4 297.2 99.4 298.4 101.4 299.5 100.4 302.9 102.9 302.7 105.4 302.6 105.5 298.2 106.8 298.2 108 298.2 107.3 303.1 108.4 303.6 109.5 304.1 110.9 301.4 112.8 301.4 114.6 301.4 116.5 299 117.3 298.1 118 297.2 120 298.6 121.3 298.6 122.5 298.6 126.5 298.5 128 298.7 129.5 299 132.5 302.5 133.8 302.5 135 302.5 137 301.6 139.1 300.9 141.3 300.1 143.8 298.7 144.9 297.5 146 296.2 149.9 295.1 149.8 294 149.6 292.9 148.9 290.4 148.9 289.5 148.9 288.6 151 287.6 150.5 286.1 150 284.6 147.9 280.4 148.8 278.9 149.6 277.4 150.9 277.6 152.6 277.6 154.4 277.6 159.5 277.5 160.6 277.5 161.8 277.5 161.3 274.4 162.4 273 163.5 271.6 165.8 269.4 165.8 269.4 165.8 269.4 166.1 267.9 165 267.9 163.9 267.9 162 265.6 162 265.6 159.8 265.5 157.1 265.4 156.6 265 153.8 262 148.1 264.7 146.4 262.7 144.6 260.7 141.8 257.9 139.8 257.7 137.8 257.6 134.3 255 134.1 254.1 134 253.2 133 249.4 132.6 249.4 132.3 249.4 131.3 248.5 129.3 246.6 127.3 244.7 121 246 119.6 246 118.3 246 116 243.7 115 243.7 114 243.7 113.8 245.6 112.1 246 110.5 246.4 104.6 245.5 103.8 245.6 102.9 245.7 100.3 248.4 99.9 247.6 99.5 246.9 96.6 248.4 95.2 245.1 92.7 245.8 88.8 245.9 86.8 247.6 84.8 249.3 85.2 253.9 85.2 254.8 85.2 255.6 80.5 255.8 80.5 257.8 80.5 259.8 86 258.4 84.3 262.4 82.7 266.4 78.2 265.6 76.2 267.3 74.2 268.9 73 275.3 70.7 276.4 68.3 277.6 58.2 273.6 53.5 275.8 48.8 277.9 46.3 284.5 48.3 284.4 49.9 284.4 52.2 284.9 52.5 286.5Z" class="undefined"/></a><a tabindex="0" class="bd-popover" data-trigger="hover" data-toggle="popover" data-placement="top" title="Timis" data-content="contact info" class="undefined"><path class="land" d="M92 355.9C92.4 354.2 93.4 353.5 93.4 352.6 93.4 351.7 92.3 346.7 90 345.9 87.8 345 89.3 342.5 89.3 341.1 89.3 339.7 88.9 337.1 89.3 336.5 89.6 335.9 93 335.7 94.6 335.7 96.3 335.7 95.5 331.4 95.9 330.6 96.3 329.9 98.9 329.9 100.5 329.4 102.1 328.9 102.5 330.2 103.9 331 105.3 331.7 108.3 333.2 109.4 333.7 110.5 334.2 114.9 333.2 116.1 333.2 117.4 333.2 122.5 336.4 123.6 336.4 124.8 336.4 124.4 334.5 123.6 333.1 122.9 331.7 121.5 329.4 122.6 329.5 123.8 329.6 126.4 328.7 127.5 328 128.6 327.2 127.9 325.2 129.4 324.9 130.9 324.5 131.4 325.7 132.6 327.5 133.9 329.2 135.4 328.2 135.4 328.2 138 328.1 137.3 324.4 138.9 323.7 140.5 323.1 144.5 323.2 145.6 323.2 146.8 323.2 148.4 321 148.8 319.1 149.1 317.2 153.6 315.9 153.6 314.1 153.6 312.4 147.9 314.4 148.8 313.2 149.6 312.1 150.5 308.6 149.3 308.5 148 308.4 146.8 306.1 146.8 304.7 146.8 303.4 147.5 301.2 147.5 299.4 147.5 297.5 144.9 297.5 144.9 297.5 143.8 298.7 141.3 300.1 139.1 300.9 137 301.6 135 302.5 133.8 302.5 132.5 302.5 129.5 299 128 298.7 126.5 298.5 122.5 298.6 121.3 298.6 120 298.6 118 297.2 117.3 298.1 116.5 299 114.6 301.4 112.8 301.4 110.9 301.4 109.5 304.1 108.4 303.6 107.3 303.1 108 298.2 106.8 298.2 105.5 298.2 105.4 302.6 102.9 302.7 100.4 302.9 101.4 299.5 99.4 298.4 97.4 297.2 94.1 295.9 93.9 294.2 93.9 294.2 94.1 291 92.6 291.1 91.1 291.2 87.6 292.4 87.6 293.2 87.6 294.1 86.5 296.5 85.4 296.6 84.3 296.7 82 296.9 81.5 295.9 81 294.9 79.1 295 78.1 296.2 77.1 297.5 75.6 297.4 74.4 296.2 73.1 295.1 72.6 294.2 71.9 294.6 71.1 295 69.8 297.4 69 296.5 68.3 295.6 67.5 293 65.6 292.6 63.8 292.2 59.3 292.4 59 291.6 58.8 290.9 58.1 289.5 57.4 289.5 56.6 289.5 52.8 288.1 52.5 286.5 52.3 284.9 49.9 284.4 48.3 284.4 46.8 285.8 41 281.9 40 281.3 39 280.6 34.3 282.8 33 283.3 31.7 283.8 26.5 282.3 25.3 282.3 24.2 282.3 21.3 285.1 21.8 286.4 22.3 287.8 25.7 293.8 26.8 294.3 28 294.8 32.5 296.6 33 298.3 33.5 299.9 36.3 301.9 37.3 301.9 38.3 301.9 43.3 310.4 44.5 312.1 45.7 313.8 49.8 312.4 51.2 313.1 52.5 313.8 51.2 322.6 50 323.6 48.8 324.6 51.7 328.8 51.7 328.8 52.3 330.1 49.8 332.1 50.2 334.4 50.5 336.8 52 334.9 53 337.6 54 340.3 61.8 347.4 63.3 347.4 64.8 347.4 69.3 348.3 69.5 349.8 69.7 351.3 76.2 353.1 77.5 353.1 78.8 353.1 90.7 358.8 91.2 361.1 91.2 361.1 91.6 357.5 92 355.9Z" class="undefined"/></a><a tabindex="0" class="bd-popover" data-trigger="hover" data-toggle="popover" data-placement="top" title="Caras Severin" data-content="contact info" class="undefined"><path class="land" d="M161.2 355.3C159.4 356.2 157.9 357.2 157.1 357.4 155.4 357.7 153.8 361.6 154.1 362.9 154.5 364.1 161.9 365.4 159 365.9 156.1 366.4 151.8 370.5 149.8 378.7 147.8 387 143.5 392.6 141.6 393.4 139.8 394.1 138.5 392.9 137.1 391.4 135.8 389.9 131.4 389.1 130.4 389.2 129.4 389.4 131.3 392.9 130.8 393.9 130.3 394.9 127.9 393.2 126.9 396.5 125.9 399.8 129.7 404.8 126.7 404.1 120 402.6 119.5 404.4 119.5 404.4 119.2 400.4 117.5 400.8 115.8 400.8 114.2 400.8 103.2 399.6 101.3 398.4 99.5 397.3 96.5 398.1 95.5 397.1 94.5 396.1 89.7 391.4 88.7 391.4 87.7 391.4 85.7 388.9 84.7 389.6 83.7 390.3 81.2 385.4 83 384.8 84.8 384.1 89.5 384.4 89.7 383.3 89.8 382.1 92 377.8 90.5 377.4 89 377.1 83.3 372.3 83.7 371.4 84 370.6 89 368.6 89.2 367.1 89.3 365.6 91.7 363.4 91.2 361.1 91.2 361.1 91.6 357.5 92 355.9 92.4 354.2 93.4 353.5 93.4 352.6 93.4 351.7 92.3 346.7 90 345.9 87.8 345 89.3 342.5 89.3 341.1 89.3 339.7 88.9 337.1 89.3 336.5 89.6 335.9 93 335.7 94.6 335.7 96.3 335.7 95.5 331.4 95.9 330.6 96.3 329.9 98.9 329.9 100.5 329.4 102.1 328.9 102.5 330.2 103.9 331 105.3 331.7 108.3 333.2 109.4 333.7 110.5 334.2 114.9 333.2 116.1 333.2 117.4 333.2 122.5 336.4 123.6 336.4 124.8 336.4 124.4 334.5 123.6 333.1 122.9 331.7 121.5 329.4 122.6 329.5 123.8 329.6 126.4 328.7 127.5 328 128.6 327.2 127.9 325.2 129.4 324.9 130.9 324.5 131.4 325.7 132.6 327.5 133.9 329.2 135.4 328.2 135.4 328.2 138 328.1 137.3 324.4 138.9 323.7 140.5 323.1 144.5 323.2 145.6 323.2 145.6 323.2 147.3 326 148.6 326.2 150 326.5 151.4 327.2 151.4 328.9 151.4 330.5 154.5 331.2 155.4 331 156.3 330.7 158 333.1 158.1 333.7 158.3 334.4 162.1 342.1 160.6 345.6 159.1 349.1 161.3 352.2 161.4 353 161.5 353.7 161.2 355.3 161.2 355.3Z" class="undefined"/></a><a tabindex="0" class="bd-popover" data-trigger="hover" data-toggle="popover" data-placement="top" title="Hunedoara" data-content="contact info" class="undefined"><path class="land" d="M162 265.6C162 265.6 163.9 267.9 165 267.9 166.1 267.9 165.8 269.4 165.8 269.4 165.8 269.4 163.5 271.6 162.4 273 161.3 274.4 161.8 277.5 160.6 277.5 159.5 277.5 154.4 277.6 152.6 277.6 150.9 277.6 149.6 277.4 148.8 278.9 147.9 280.4 150 284.6 150.5 286.1 151 287.6 148.9 288.6 148.9 289.5 148.9 290.4 149.6 292.9 149.8 294 149.9 295.1 146 296.2 144.9 297.5 144.9 297.5 147.5 297.5 147.5 299.4 147.5 301.2 146.8 303.4 146.8 304.7 146.8 306.1 148 308.4 149.3 308.5 150.5 308.6 149.6 312.1 148.8 313.2 147.9 314.4 153.6 312.4 153.6 314.1 153.6 315.9 149.1 317.2 148.8 319.1 148.4 321 146.8 323.2 145.6 323.2 145.6 323.2 147.3 326 148.6 326.2 150 326.5 151.4 327.2 151.4 328.9 151.4 330.5 154.5 331.2 155.4 331 156.3 330.7 158 333.1 158.1 333.7 158.3 334.4 162.1 342.1 160.6 345.6 159.1 349.1 161.3 352.2 161.4 353 161.5 353.7 161.2 355.3 161.2 355.3 160.9 355.4 160.7 355.5 160.5 355.7 162.9 354.3 166.1 352.8 168.9 353.5 173.4 354.6 179 355.5 181 355.2 183 355 185.4 354 186.9 354 188.4 354 193.6 352.2 196.3 351.2 198.9 350.2 201.4 349.2 203.9 349.5 206.4 349.7 215.1 348.7 215.4 346.6 215.6 344.5 214.9 340 217.1 338.7 217.1 338.7 213.2 337.1 211.8 332.4 210.5 327.8 207.5 331.1 206 329.3 204.5 327.4 203.8 320.1 201.8 315.3 199.8 310.4 199.3 307.8 199.3 305.3 199.3 302.8 196.7 298.9 196 295.9 195.3 292.9 189.8 294.6 189 291.9 188.2 289.3 186.8 288.1 185.5 287.9 184.2 287.8 186.3 284.4 189 285.3 191.7 286.1 186.7 279.8 182.8 278.6 182.8 278.6 178.2 278.3 178 275.9 177.8 273.6 178.5 269.4 174.7 269.4 170.8 269.4 164.3 268.3 162 265.6Z" class="undefined"/></a><a tabindex="0" class="bd-popover" data-trigger="hover" data-toggle="popover" data-placement="top" title="Alba Iulia" data-content="contact info" class="undefined"><path class="land" d="M169.6 250.6C169.4 251.7 168 250.9 165.6 251.9 163.3 252.9 162.3 256.4 162.3 257.7 162.3 259.1 165 261.2 163.9 262.4 162.8 263.5 162 265.6 162 265.6 164.3 268.3 170.8 269.4 174.7 269.4 178.5 269.4 177.8 273.6 178 275.9 178.2 278.3 182.8 278.6 182.8 278.6 186.7 279.8 191.7 286.1 189 285.3 186.3 284.4 184.2 287.8 185.5 287.9 186.8 288.1 188.2 289.3 189 291.9 189.8 294.6 195.3 292.9 196 295.9 196.7 298.9 199.3 302.8 199.3 305.3 199.3 307.8 199.8 310.4 201.8 315.3 203.8 320.1 204.5 327.4 206 329.3 207.5 331.1 210.5 327.8 211.8 332.4 213.2 337.1 217.1 338.7 217.1 338.7 217.1 338.7 216.6 332.9 217.3 331.5 217.9 330.1 216.4 325.5 215.8 323.1 215.1 320.7 217.4 318.4 218 317.7 218.6 317.1 215.5 315.9 215.9 314.5 216.3 313.1 220.5 314 221.4 312.7 222.3 311.5 221.6 306.9 222.5 305 223.4 303.1 228.4 303 229.8 301.7 231.1 300.5 228.8 297.2 231.1 295.9 233.5 294.5 236.3 297 237.9 296.9 239.5 296.7 239.9 291 242 289.2 244.1 287.5 248.8 287.2 250.5 284.6 252.3 282 250.6 280.7 250.9 280.2 251.1 279.7 250.6 274 241.8 270.4 232.9 266.7 240.3 265.6 240.1 265.2 240 264.9 233.8 259.6 227.3 259.6 220.8 259.6 220.6 264.5 216.9 263.9 213.1 263.2 215.3 259.9 216 259.6 216.8 259.4 213.5 257.5 210.9 257.5 208.3 257.5 206.6 257 204.6 255.5 202.6 254 198.8 253.5 196.6 254.4 194.5 255.2 194.5 258.9 192.4 257.6 190.3 256.4 187.3 258.1 185.4 259.4 183.5 260.6 181.4 255.9 180.9 253.9 180.4 251.9 176 252.6 174.1 253.4 172.3 254.1 169.6 250.6 169.6 250.6Z" class="undefined"/></a><a tabindex="0" class="bd-popover" data-trigger="hover" data-toggle="popover" data-placement="top" title="Sibiu" data-content="contact info" class="undefined"><path class="land" d="M250.9 280.2C250.9 280.8 252.3 282 250.5 284.6 248.8 287.2 244.1 287.5 242 289.2 239.9 291 239.5 296.7 237.9 296.9 236.3 297 233.5 294.5 231.1 295.9 228.8 297.2 231.1 300.5 229.8 301.7 228.4 303 223.4 303.1 222.5 305 221.6 306.9 222.3 311.5 221.4 312.7 220.5 314 216.3 313.1 215.9 314.5 215.5 315.9 218.6 317.1 218 317.7 217.4 318.4 215.1 320.7 215.8 323.1 216.4 325.5 217.9 330.1 217.3 331.5 216.6 332.9 217.1 338.7 217.1 338.7 219.4 337.5 229.4 333 232.8 333.2 236.1 333.5 239.4 336.1 243 336.1 246.6 336.1 252.8 331.9 255.9 331 259 330.1 265.3 330.5 267.4 331.4 269.5 332.2 272.1 328.6 274.4 327.9 275.7 327.4 278 327.4 280 327.4 280 327.4 279 318.1 277.9 317.5 276.7 316.8 276.1 311.9 280.4 311.4 284.6 310.9 283.2 308.7 282.8 308.1 282.5 307.4 276.2 305.9 283.5 301 290.7 296.1 294.2 293.9 294.4 292.3 294.5 290.6 289.6 288.6 286.3 289.5 283 290.3 279.4 292.6 278.5 290.6 277.7 288.6 278.2 276 278.2 276 278.2 276 271.5 276 269.3 277.4 267.2 278.9 262.6 277.9 261.3 277.4 259.9 277 250.9 277.4 250.9 280.2Z" class="undefined"/></a><a tabindex="0" class="bd-popover" data-trigger="hover" data-toggle="popover" data-placement="top" title="Brasov" data-content="contact info" class="undefined"><path class="land" d="M292.5 290.3C292.5 290.3 292.5 290.3 292.5 290.3 293.7 290.9 294.4 291.6 294.4 292.3 294.2 293.9 290.7 296.1 283.5 301 276.2 305.9 282.5 307.4 282.8 308.1 283.2 308.7 284.6 310.9 280.4 311.4 276.1 311.9 276.7 316.8 277.9 317.5 279 318.1 280 327.4 280 327.4 280 327.4 280 327.4 280 327.4 281.5 327.5 282.9 327.6 283.5 327.6 285 327.7 287.9 328.5 289.7 328.7 291.6 329 300.2 328.9 302.1 330.1 304 331.4 307 333.9 309.9 335 312.7 336.1 313.5 340.5 313.5 340.5 313.5 340.5 315.1 343.5 317 343.5 318.9 343.5 322.7 340.7 324.7 339.6 326.7 338.5 331 336 332.7 336 334.5 336 340.1 334.5 342.2 335 344.4 335.5 347.5 337.2 348.2 338.4 349 339.5 351 337.7 352.1 336.5 353.2 335.2 354.5 334.5 356.6 334.6H359.5C359.5 334.6 362 330.8 361.8 330.8 361.8 330.8 356.2 323.6 354.4 320.6 352.5 317.6 346.7 315.6 344.9 315.6 343 315.6 337.6 316.4 336.2 315.1 334.9 313.9 329.4 309.1 330.5 307.6 331.6 306.1 334 305.1 333.7 304 333.5 302.9 327.9 299.1 328.7 295.4 329.6 291.6 326.6 293.4 324 291.2 321.4 289.1 322.2 286.2 320.4 286.2 318.5 286.2 313.2 283.5 310.1 284.9 307 286.2 306 286.8 303.5 285.9 298.5 283.9 292.5 290.3 292.5 290.3Z" class="undefined"/></a><a tabindex="0" class="bd-popover" data-trigger="hover" data-toggle="popover" data-placement="top" title="Covasna" data-content="contact info" class="undefined"><path class="land" d="M371 273.6C371 275.4 369 280.6 366.8 280.6 364.5 280.6 358.3 283.4 356.8 284.4 355.3 285.4 347.3 283.4 345.3 283.4 343.3 283.4 339.5 271.4 339.5 271.4 339.5 271.4 337 273.6 335.3 273.6 333.5 273.6 327.3 277.1 326.8 281.9 326.3 286.6 320.4 286.2 320.4 286.2 322.3 286.2 321.4 289.1 324 291.2 326.6 293.4 329.6 291.6 328.8 295.4 327.9 299.1 333.5 302.9 333.8 304 334 305.1 331.6 306.1 330.5 307.6 329.4 309.1 334.9 313.9 336.3 315.1 337.6 316.4 343 315.6 344.9 315.6 346.8 315.6 352.5 317.6 354.4 320.6 356.3 323.6 361.8 330.8 361.8 330.8 361.8 330.8 364 327.4 365.5 327.4 367 327.4 368 326.4 368.7 325.3 369.3 324.1 370.7 324.9 372 325.9 373.3 326.9 373.8 326.9 375 325.8 376.2 324.6 375.4 321.2 376.5 318.9 377.8 316.3 379.7 315.3 380 313.8 380.3 312.3 377.2 306.9 378 303.4 378.8 299.9 381 295.9 380 290.4 379 284.9 376.3 279.3 374.2 276.6" class="undefined"/></a><a tabindex="0" class="bd-popover" data-trigger="hover" data-toggle="popover" data-placement="top" title="Harghita" data-content="contact info" class="undefined"><path class="land" d="M310.1 284.9C313.5 285.3 318.5 286.2 320.4 286.2 320.4 286.2 326.3 286.6 326.8 281.9 327.3 277.1 333.5 273.6 335.3 273.6 337 273.6 339.5 271.4 339.5 271.4 339.5 271.4 343.3 283.4 345.3 283.4 347.3 283.4 355.3 285.4 356.8 284.4 358.3 283.4 364.5 280.6 366.8 280.6 369 280.6 371 275.4 371 273.6L374.2 276.6C372 273.9 372.3 268.6 370.3 267.1 368.3 265.6 368 270.6 366.7 270.3 365.3 269.9 364.7 262.8 360.7 262.3 356.7 261.8 354.3 263.3 354.8 260.4 355.3 257.8 357.8 259.3 358 257.1 358.2 254.9 357.8 249.8 355.5 245.9 353.2 242.1 352.5 244.6 350.7 244.1 348.8 243.6 345.5 243.3 344.7 239.4 343.8 235.6 344.2 232.4 342.3 230.1 340.5 227.8 341.1 225.6 342.2 224.9 345.2 223.1 347 224.7 347.2 222.8 347.3 220.4 345 221.1 344 219.1 343 217.1 340.5 210.6 336.2 209.9 331.8 209.3 329.2 210.6 327.3 209.1 325.5 207.6 321.3 207.1 318.5 207.4 315.7 207.8 315.8 208.6 314.3 210.1 313.4 211 311.8 211.7 310 211.6 310 211.6 313.8 218.1 313.3 221.8 312.8 225.4 310.7 228.3 314 233.3 317.3 238.3 311 249.9 307.8 251.9 304.7 253.9 296.5 257.6 295.5 261.4 294.5 265.3 294.5 266.9 293.7 267.8 292.8 268.6 289.7 268.4 289.3 270.9 289 273.4 291.3 273.4 291.8 274.9 292.3 276.4 298 277.3 301.2 278.4 304.3 279.6 304.1 284.1 310.1 284.9Z" class="undefined"/></a><a tabindex="0" class="bd-popover" data-trigger="hover" data-toggle="popover" data-placement="top" title="Targu Mures" data-content="contact info" class="undefined"><path class="land" d="M240.1 265.2C240.4 265.6 232.9 266.7 241.8 270.4 250 273.7 251 278.9 250.9 280.1 251.3 277.4 260 277 261.3 277.4 262.6 277.9 267.2 278.9 269.3 277.4 271.5 276 278.2 276 278.2 276 278.2 276 277.7 288.6 278.5 290.6 279.4 292.6 283 290.3 286.3 289.5 288.3 289 291 289.5 292.7 290.4 292.6 290.4 292.6 290.3 292.5 290.3 292.5 290.3 292.5 290.3 292.5 290.3 292.5 290.3 298.5 283.9 303.5 285.9 306 286.8 307 286.2 310.1 284.9 304.1 284.1 304.3 279.6 301.2 278.4 298 277.3 292.3 276.4 291.8 274.9 291.3 273.4 289 273.4 289.3 270.9 289.7 268.4 292.8 268.6 293.7 267.8 294.5 266.9 294.5 265.3 295.5 261.4 296.5 257.6 304.7 253.9 307.8 251.9 311 249.9 317.3 238.3 314 233.3 310.7 228.3 312.8 225.4 313.3 221.8 313.8 218.1 310 211.6 310 211.6 310.1 211.6 310.1 211.6 310.1 211.6 308.9 211.6 307.6 211.3 306.3 210.4 306.3 210.4 302.1 209.5 301.6 208.9 301.6 208.9 293 211.9 290.9 211.9 288.8 211.9 285.5 217.4 284.3 218.7 283 220.1 281.1 224 282.4 226.4 283.6 228.7 281.1 228.6 281.1 228.6 281.1 228.6 277.9 224.4 275.9 224 273.9 223.6 272.1 226.4 272 227.2 271.9 228.1 269.8 231.5 268.3 232.6 266.8 233.7 267.3 236.1 265.3 237.2 263.3 238.4 259.5 239.5 256.3 238.6 253 237.7 250.3 235.4 249.4 235.6 248.5 235.9 243.4 238.7 243.4 239.9 243.4 241 246.9 243.2 245.8 244.9 244.6 246.5 240.4 246.4 240.4 248.6 240.4 250.9 242.4 254.9 240.6 255.7 238.9 256.6 234.3 257.4 240.1 265.2Z" class="undefined"/></a><a tabindex="0" class="bd-popover" data-trigger="hover" data-toggle="popover" data-placement="top" title="Bistrita Nasaud" data-content="contact info" class="undefined"><path class="land" d="M249.4 235.6C250.3 235.4 253 237.7 256.3 238.6 259.5 239.5 263.3 238.4 265.3 237.2 267.3 236.1 266.8 233.7 268.3 232.6 269.8 231.5 271.9 228.1 272 227.2 272.1 226.4 273.9 223.6 275.9 224 277.9 224.4 281.1 228.6 281.1 228.6 281.1 228.6 283.6 228.7 282.4 226.4 281.1 224 283 220.1 284.3 218.7 285.5 217.4 288.8 211.9 290.9 211.9 293 211.9 301.6 208.9 301.6 208.9 302.1 209.5 306.3 210.4 306.3 210.4 303.2 208.4 299.3 202.6 299.3 197.3 299.3 191.9 297.8 188.1 297 185.4 296.2 182.8 299.7 183.8 299.7 182.1 299.7 180.4 300.5 178.3 298.7 176.6 296.8 174.9 292.8 173.1 294.3 171.3 294.3 171.3 291.7 172.3 290 172.3 288.3 172.3 282.8 173.6 281.3 173.6 279.8 173.6 278.5 176.8 277.5 176.8 276.5 176.8 274.3 175.4 271.5 174.6 268.7 173.8 262.7 174.8 260.5 174.9 258.3 175.1 255.7 178.6 254.8 179.4 254 180.3 247.7 181.3 246.5 181.3 245.3 181.3 245.7 185.1 245.2 186.4 244.7 187.8 243.3 189.9 242.3 190.4 241.3 190.9 240.2 191.9 238.7 192.1 238.7 192.1 241.5 196.6 240.5 197.1 239.5 197.6 234.5 199.6 236.5 203.1 238.5 206.6 246.5 209.6 247.3 212.4 248 215.1 244.8 219.1 246.3 220.9 247.8 222.6 254.8 225.1 249.5 234.9" class="undefined"/></a><a tabindex="0" class="bd-popover" data-trigger="hover" data-toggle="popover" data-placement="top" title="Cluj-Napoca" data-content="contact info" class="undefined"><path class="land" d="M230.2 192.8C231 192.8 231.5 190.9 232.8 190.9 234.2 190.9 237.2 192.3 238.7 192.1 238.7 192.1 241.5 196.6 240.5 197.1 239.5 197.6 234.5 199.6 236.5 203.1 238.5 206.6 246.5 209.6 247.3 212.4 248 215.1 244.8 219.1 246.3 220.9 247.8 222.6 254.8 225.1 249.5 234.9L249.4 235.6C248.5 235.9 243.4 238.7 243.4 239.9 243.4 241 246.9 243.2 245.8 244.9 244.6 246.5 240.4 246.4 240.4 248.6 240.4 250.9 242.4 254.9 240.6 255.7 238.9 256.6 234.3 257.4 240.1 265.2 240 264.9 233.8 259.6 227.3 259.6 220.8 259.6 220.6 264.5 216.9 263.9 213.1 263.2 215.3 259.9 216 259.6 216.8 259.4 213.5 257.5 210.9 257.5 208.3 257.5 206.6 257 204.6 255.5 202.6 254 198.8 253.5 196.6 254.4 194.5 255.2 194.5 258.9 192.4 257.6 190.3 256.4 187.3 258.1 185.4 259.4 183.5 260.6 181.4 255.9 180.9 253.9 180.4 251.9 176 252.6 174.1 253.4 172.3 254.1 169.6 250.6 169.6 250.6 169.9 249.5 170.9 246 170.3 245.6 169.6 245.2 166.8 246.2 166.8 245.5 166.8 244.7 167.8 240 165.8 238.7 163.8 237.5 163.5 236.2 162.5 235.1 161.5 234 162 233.6 162 233.6 162 233.6 166.5 233.7 167 232.9 167.5 232 167.6 229.2 167.6 229.2 167.6 229.2 170.1 226.7 169.4 225.7 168.6 224.7 165.3 224 164.4 222.4 163.5 220.7 166 219.5 166 218.1 166 218.1 173.5 218.6 176 220.4 178.5 222.1 177.5 225.6 180 225.6 182.5 225.6 186.5 230.1 188.3 230.1 190 230.1 195 228.4 195 228.4L195.5 221.1C195.5 221.1 200 227.4 201.3 226.4 202.5 225.4 208 218.1 210 217.1 212 216.1 208.3 214.1 208.8 212.4 209.3 210.6 210.8 207.4 211.5 207.4 212.3 207.4 219 207.1 219.3 205.9 219.5 204.6 223.5 198.1 226.5 198.6 229.5 199.1 230.5 201.1 230.8 200.4 231 199.6 230.2 192.8 230.2 192.8Z" class="undefined"/></a><a tabindex="0" class="bd-popover" data-trigger="hover" data-toggle="popover" data-placement="top" title="Salaj" data-content="contact info" class="undefined"><path class="land" d="M180 225.6C182.5 225.6 186.5 230.1 188.3 230.1 190 230.1 195 228.4 195 228.4L195.5 221.1C195.5 221.1 200 227.4 201.3 226.4 202.5 225.4 208 218.1 210 217.1 212 216.1 208.3 214.1 208.8 212.4 209.3 210.6 210.8 207.4 211.5 207.4 212.3 207.4 219 207.1 219.3 205.9 219.5 204.6 223.5 198.1 226.5 198.6 229.5 199.1 230.5 201.1 230.8 200.4 231 199.6 230.2 192.8 230.2 192.8 229.3 192.8 227.5 193.6 226 193.9 224.5 194.3 222.7 190.3 222.7 190.3 222.7 190.3 221 186.9 217.8 188.9 214.7 190.9 211.8 188.8 210.5 188.8 209.2 188.8 205.2 188.3 203.3 187.6 201.5 186.9 201.3 186.1 199.5 185.8 197.7 185.4 195.7 185.9 194.5 184.9 193.3 183.9 190 184.9 190 184.9 190.4 185.9 189.7 189.8 189.1 189.9 188.5 190.1 187.4 192.1 186.3 191.4 185.3 190.8 181.8 190.2 181 190.2 180.2 190.2 178 188.6 177.4 187.6 176.8 186.6 174.3 185.5 173.7 186.1 173.1 186.7 172 186.1 172 186.1 172 186.1 169 186.4 167 187.4 165 188.4 161.3 190.9 159.8 190.9 161.3 192.9 157.6 194.1 157.4 195 157.1 195.9 156.8 201 156 201.6 155.3 202.2 153.6 203.1 153.6 204.5 153.6 205.9 154.3 205.5 155.6 205.4 157 205.2 157.1 210.4 157.1 211.1 157.1 211.9 157.9 213.9 161 213.4 164.1 212.9 166 216.7 166 218.1 166 218.1 173.5 218.6 176 220.4 178.5 222.1 177.5 225.6 180 225.6Z" class="undefined"/></a><text x="342.5" y="175" font="bold 10px arial,helvetica,sans-serif" class="b"><tspan dy="3.4969174457187364" class="c">  SV</tspan></text><text x="396.5" y="150.2" font="bold 10px arial,helvetica,sans-serif" class="b"><tspan dy="3.495166026384254" class="c">  BT</tspan></text><text x="427.9" y="199.1" font="bold 10px arial,helvetica,sans-serif" class="b"><tspan dy="3.5030019331951507" class="c">  IS</tspan></text><text x="379.9" y="216.1" font="bold 10px arial,helvetica,sans-serif" class="b"><tspan dy="3.5062385550432396" class="c">  NT</tspan></text><text x="396.1" y="261" font="bold 10px arial,helvetica,sans-serif" class="b"><tspan dy="3.493319366362414" class="c">  BC</tspan></text><text x="453" y="253.1" font="bold 10px arial,helvetica,sans-serif" class="b"><tspan dy="3.5013497989804705" class="c">  VS</tspan></text><text x="454.8" y="308.7" font="bold 10px arial,helvetica,sans-serif" class="b"><tspan dy="3.497694654653287" class="c">  GL</tspan></text><text x="411.8" y="307.2" font="bold 10px arial,helvetica,sans-serif" class="b"><tspan dy="3.5038971563633936" class="c">  VN</tspan></text><text x="399.3" y="351.1" font="bold 10px arial,helvetica,sans-serif" class="b"><tspan dy="3.498165039062542" class="c">  BZ</tspan></text><text x="453.3" y="360" font="bold 10px arial,helvetica,sans-serif" class="b"><tspan dy="3.501254845695371" class="c">  BR</tspan></text><text x="493.7" y="424.2" font="bold 10px arial,helvetica,sans-serif" class="b"><tspan dy="3.496057692008719" class="c">  CT</tspan></text><text x="527.3" y="361.7" font="bold 10px arial,helvetica,sans-serif" class="b"><tspan dy="3.497591034136235" class="c">  TL</tspan></text><text x="178.7" y="406.6" font="bold 10px arial,helvetica,sans-serif" class="b"><tspan dy="3.499526731739479" class="c">  MH</tspan></text><text x="211" y="431.4" font="bold 10px arial,helvetica,sans-serif" class="b"><tspan dy="3.498048150380896" class="c">  DJ</tspan></text><text x="191.7" y="377" font="bold 10px arial,helvetica,sans-serif" class="b"><tspan dy="3.4927978515625" class="c">  GJ</tspan></text><text x="244.4" y="368.8" font="bold 10px arial,helvetica,sans-serif" class="b"><tspan dy="3.4969806145140296" class="c">  VL</tspan></text><text x="260.6" y="428.6" font="bold 10px arial,helvetica,sans-serif" class="b"><tspan dy="3.505642177651339" class="c">  OT</tspan></text><text x="290.4" y="374.3" font="bold 10px arial,helvetica,sans-serif" class="b"><tspan dy="3.50679346126617" class="c">  AG</tspan></text><text x="307.4" y="446.3" font="bold 10px arial,helvetica,sans-serif" class="b"><tspan dy="3.494001438576447" class="c">  TR</tspan></text><text x="330.4" y="379.2" font="bold 10px arial,helvetica,sans-serif" class="b"><tspan dy="3.501556723069598" class="c">  DB</tspan></text><text x="354.9" y="442.4" font="bold 10px arial,helvetica,sans-serif" class="b"><tspan dy="3.497188476562542" class="c">  GR</tspan></text><text x="428.1" y="398.2" font="bold 10px arial,helvetica,sans-serif" class="b"><tspan dy="3.5034392642637044" class="c">  IL</tspan></text><text x="422.9" y="424.2" font="bold 10px arial,helvetica,sans-serif" class="b"><tspan dy="3.4970545299649984" class="c">  CL</tspan></text><text x="359.1" y="365.4" font="bold 10px arial,helvetica,sans-serif" class="b"><tspan dy="3.4926892296703045" class="c">  PH</tspan></text><text x="363.7" y="412.3" font="bold 10px arial,helvetica,sans-serif" class="b"><tspan dy="3.4962585662602805" class="c">  B</tspan></text><text x="179.7" y="162" font="bold 10px arial,helvetica,sans-serif" class="b"><tspan dy="3.5037506248425245" class="c">  SM</tspan></text><text x="238.5" y="167.9" font="bold 10px arial,helvetica,sans-serif" class="b"><tspan dy="3.5036375039103405" class="c">  MM</tspan></text><text x="132.8" y="218.6" font="bold 10px arial,helvetica,sans-serif" class="b"><tspan dy="3.493297851562488" class="c">  BH</tspan></text><text x="105.4" y="273.2" font="bold 10px arial,helvetica,sans-serif" class="b"><tspan dy="3.507554796006957" class="c">  AR</tspan></text><text x="87.3" y="320.1" font="bold 10px arial,helvetica,sans-serif" class="b"><tspan dy="3.5032452091745654" class="c">  TM</tspan></text><text x="120.7" y="363.2" font="bold 10px arial,helvetica,sans-serif" class="b"><tspan dy="3.492524892378867" class="c">  CS</tspan></text><text x="181" y="310.1" font="bold 10px arial,helvetica,sans-serif" class="b"><tspan dy="3.501672851562489" class="c">  HD</tspan></text><text x="206.7" y="294.2" font="bold 10px arial,helvetica,sans-serif" class="b"><tspan dy="3.4927978515625" class="c">  AB</tspan></text><text x="254.5" y="306.8" font="bold 10px arial,helvetica,sans-serif" class="b"><tspan dy="3.497926757812479" class="c">  SB</tspan></text><text x="318.5" y="312.5" font="bold 10px arial,helvetica,sans-serif" class="b"><tspan dy="3.4977978515624955" class="c">  BV</tspan></text><text x="350.3" y="300.6" font="bold 10px arial,helvetica,sans-serif" class="b"><tspan dy="3.498172851562458" class="c">  CV</tspan></text><text x="331.4" y="246.1" font="bold 10px arial,helvetica,sans-serif" class="b"><tspan dy="3.504056914574562" class="c">  HR</tspan></text><text x="271.7" y="249.6" font="bold 10px arial,helvetica,sans-serif" class="b"><tspan dy="3.498447953198877" class="c">  MS</tspan></text><text x="269.7" y="204.6" font="bold 10px arial,helvetica,sans-serif" class="b"><tspan dy="3.498165039062485" class="c">  BN</tspan></text><text x="206.3" y="239" font="bold 10px arial,helvetica,sans-serif" class="b"><tspan dy="3.492937756347686" class="c">  CJ</tspan></text><text x="192.2" y="206.2" font="bold 10px arial,helvetica,sans-serif" class="b"><tspan dy="3.5070349663628235" class="c">  SJ</tspan></text></svg>